<svg xmlns="http://www.w3.org/2000/svg" viewBox="0 0 300 300"><path fill="#7892a0" d="M37.94 83.06c-15.71-14.09-15.76-33.54-.74-48.11C52.68 19.93 72.41 12.41 93.11 7.74q52.11-11.76 104.71-2.1c24.53 4.5 49.65 14.33 67.05 32.96 17.34 18.58 5.55 39.7-11.83 51.93q-8.85 6.24-18.91 10.26c-38.79 15.5-80.75 18.67-121.84 12.66-27.48-4.02-53.08-11.3-74.35-30.39Z"/><path fill="#7892a0" d="M76.4 120.67c42.99 13.46 88.51 15.29 132.68 3.74 15.73-4.12 32.97-11.38 45.75-19.84q12.09-8.01 16.79-19.83 1.5-3.78 1.55.29.2 16.86.16 32.78c-.08 31.16-42.3 45.83-66.49 51.67q-68.18 16.46-135.28-6.04c-12.89-4.32-27.58-12.68-36-22.31-6.62-7.57-9.64-15.58-9.59-25.93q.07-16.27.01-31.98 0-2.37 1.02-.24c9.71 20.18 28.58 31.17 49.4 37.69Z"/><path fill="#7892a0" d="M71.81 182.6c55.58 19.45 124.61 18.6 175.92-10.16 12.28-6.88 19.83-13.47 24.96-25.81a.23.23 0 0 1 .44.08q.44 16.89.08 33.89c-.24 11.75-3.66 19.28-12.31 27.06-15.91 14.33-35.36 21.48-55.93 26.17q-67.17 15.32-132.44-6.29-16.59-5.5-31.18-17.36c-10.81-8.8-15.58-19.05-15.31-32.76q.28-15.08-.14-30.56-.07-2.43 1.03-.26c9.67 19.02 25.21 29.11 44.88 36Z"/><path fill="#7892a0" d="M65.56 239.25c43.62 16.41 90.26 19.83 135.77 9.64q28.5-6.38 51.8-20.76c9.58-5.91 15.39-12.67 19.68-22.59a.14.14 0 0 1 .26.05q.93 20.17-.05 40.41c-.42 8.68-8.34 17.93-15.91 23.86-15.29 11.99-30.78 17.52-49.79 22.14q-65.12 15.84-129.81-4.05c-19.02-5.84-44.57-18.61-50.23-39.45q-1.26-4.62-1.13-14.22.2-14.71.07-29.31a.18.18 0 0 1 .34-.08q12.82 24.52 39 34.36Z"/></svg>