<?xml version="1.0" encoding="UTF-8"?>
<svg version="1.1" xmlns="http://www.w3.org/2000/svg" width="173" height="250">
<path d="M0 0 C6.79891449 4.22356809 12.91878616 9.19652355 18.3515625 15.08203125 C18.84269531 15.57960938 19.33382812 16.0771875 19.83984375 16.58984375 C27.72928323 25.0078561 29.65213741 35.24004571 29.58203125 46.45703125 C29.21000917 52.3084972 28.15751438 58.02322264 27.10546875 63.78515625 C25.43731098 71.48348971 25.43731098 71.48348971 26.3515625 79.08203125 C27.63342121 89.26365187 24.45153402 99.14867053 19.76171875 108.125 C18.23596813 111.3244272 17.67236706 114.09196911 17.1015625 117.58203125 C13.71066909 134.23781857 2.58669 150.59194625 -11.6484375 160.08203125 C-11.00546246 162.70776186 -10.35919339 165.33260428 -9.7109375 167.95703125 C-9.43733398 169.07658203 -9.43733398 169.07658203 -9.15820312 170.21875 C-8.19634058 174.2524225 -8.19634058 174.2524225 -6.6484375 178.08203125 C-6.08614051 181.59638743 -5.95599407 184.03411982 -7.96484375 187.07421875 C-9.78332276 189.1652662 -11.68330937 191.12860031 -13.6484375 193.08203125 C-14.40640625 193.91154297 -14.40640625 193.91154297 -15.1796875 194.7578125 C-23.91043292 204.08991029 -39.47338739 218.82550661 -52.5234375 219.58203125 C-64.1035255 219.44597277 -73.37621582 210.34910868 -81.6484375 203.08203125 C-82.15439453 202.63778809 -82.66035156 202.19354492 -83.18164062 201.73583984 C-99.73527437 187.11551463 -99.73527437 187.11551463 -101.44921875 181.421875 C-101.71346278 176.99190157 -100.74908101 173.22724941 -99.6484375 168.95703125 C-99.24416974 167.37322275 -98.84801937 165.78731491 -98.4609375 164.19921875 C-98.28175781 163.50425293 -98.10257813 162.80928711 -97.91796875 162.09326172 C-97.60721524 159.77443255 -97.87109641 158.28024756 -98.6484375 156.08203125 C-100.46077486 153.91161643 -100.46077486 153.91161643 -102.7109375 151.70703125 C-110.87354886 142.88153266 -116.0510801 132.51521666 -119.6484375 121.08203125 C-120.12473085 119.60193687 -120.60380024 118.12273231 -121.0859375 116.64453125 C-121.32054687 115.92523438 -121.55515625 115.2059375 -121.796875 114.46484375 C-122.82183684 111.59683126 -124.01125497 108.81879049 -125.2109375 106.01953125 C-129.08157168 96.76265313 -132.11642418 86.55583997 -128.8203125 76.57421875 C-127.33942935 73.57929835 -125.49982566 70.85911349 -123.6484375 68.08203125 C-123.98617187 67.50195312 -124.32390625 66.921875 -124.671875 66.32421875 C-125.11789063 65.54304688 -125.56390625 64.761875 -126.0234375 63.95703125 C-126.68472656 62.80847656 -126.68472656 62.80847656 -127.359375 61.63671875 C-132.52558673 51.39822641 -131.53358935 40.03496953 -128.6796875 29.1875 C-125.58723227 19.87499278 -121.23111304 13.0802616 -112.6484375 8.08203125 C-106.2690573 5.01174131 -99.644346 4.46124872 -92.6484375 4.08203125 C-92.26558594 2.96828125 -92.26558594 2.96828125 -91.875 1.83203125 C-88.31943902 -6.13967235 -79.81715719 -11.79670229 -71.9453125 -15.02734375 C-49.30066573 -21.144618 -19.65046434 -11.27362655 0 0 Z M-81.11328125 4.83203125 C-86.33150091 12.48010891 -88.76875376 19.33125793 -88.8984375 28.58203125 C-88.92421875 29.68546875 -88.95 30.78890625 -88.9765625 31.92578125 C-88.4799581 36.7026426 -86.68791467 39.19467269 -83.0859375 42.26953125 C-75.39844444 46.32293668 -66.90199026 46.37205292 -58.375 46.390625 C-56.22916391 46.41578194 -54.08333064 46.44118001 -51.9375 46.46679688 C-48.604825 46.49547612 -45.2721987 46.51953824 -41.93945312 46.53833008 C-10.09089447 46.75231552 -10.09089447 46.75231552 1.3515625 56.08203125 C3.87495056 58.82092606 6.18449975 61.63232823 8.44140625 64.59375 C9.98347978 66.60254517 11.50968178 68.35562894 13.3515625 70.08203125 C13.8259375 68.88578125 14.3003125 67.68953125 14.7890625 66.45703125 C15.05589844 65.78414063 15.32273437 65.11125 15.59765625 64.41796875 C17.61977489 58.15254415 17.5982903 51.78974906 17.6640625 45.26953125 C17.69306641 44.32271484 17.72207031 43.37589844 17.75195312 42.40039062 C17.82304314 34.45471463 16.08175718 28.68138903 11.265625 22.33203125 C-7.3882396 3.99649199 -32.77345153 -5.31771311 -58.7734375 -6.35546875 C-68.4030068 -6.17498068 -75.11159953 -2.65942962 -81.11328125 4.83203125 Z M-112.4609375 21.70703125 C-117.30469612 27.72035346 -118.96930435 34.47574001 -119.6484375 42.08203125 C-119.74511719 43.13003906 -119.74511719 43.13003906 -119.84375 44.19921875 C-120.15362356 50.16944931 -118.77776328 54.9654694 -115.6484375 60.08203125 C-114.9884375 60.41203125 -114.3284375 60.74203125 -113.6484375 61.08203125 C-113.308125 60.45296875 -112.9678125 59.82390625 -112.6171875 59.17578125 C-107.77821057 50.6303539 -102.66858428 44.27178693 -93.6484375 40.08203125 C-93.66003906 38.78007813 -93.67164062 37.478125 -93.68359375 36.13671875 C-93.69297723 34.41015769 -93.70207684 32.68359507 -93.7109375 30.95703125 C-93.71931641 30.10109375 -93.72769531 29.24515625 -93.73632812 28.36328125 C-93.75382056 23.81524714 -93.58036108 19.55819961 -92.6484375 15.08203125 C-100.76301466 14.64732176 -106.69286216 15.62389297 -112.4609375 21.70703125 Z M-101.5859375 51.98046875 C-107.81577402 58.70597185 -107.81577402 58.70597185 -110.6484375 67.08203125 C-109.49988281 67.00984375 -108.35132812 66.93765625 -107.16796875 66.86328125 C-74.25525572 64.8596202 -74.25525572 64.8596202 -59.60253906 68.60498047 C-52.35907691 70.37331193 -44.11037466 69.4540426 -36.97265625 67.59375 C-23.976518 64.73241536 -9.77488436 65.75756094 3.3515625 67.08203125 C-1.12863442 59.24168663 -7.22092981 55.07094852 -15.86328125 52.625 C-22.61333487 51.30907089 -29.30220962 50.9460206 -36.1640625 51.0546875 C-37.76171654 51.06733889 -39.35937291 51.07969947 -40.95703125 51.09179688 C-43.42276659 51.11646889 -45.88837332 51.14439417 -48.35400391 51.17797852 C-77.44968897 51.5478636 -77.44968897 51.5478636 -88.6484375 44.08203125 C-94.04545703 44.08203125 -97.8676571 48.33715368 -101.5859375 51.98046875 Z M-103.6484375 72.08203125 C-104.24307024 83.95468044 -104.24307024 83.95468044 -100.6484375 95.08203125 C-95.41948337 100.31098538 -87.62160678 99.94455365 -80.6484375 100.08203125 C-75.25771258 99.69203715 -70.43224929 99.04826263 -65.6484375 96.45703125 C-60.92189913 90.84426693 -58.47815043 84.66155231 -58.5859375 77.33203125 C-58.59496094 76.5328125 -58.60398438 75.73359375 -58.61328125 74.91015625 C-58.62488281 74.306875 -58.63648438 73.70359375 -58.6484375 73.08203125 C-59.7003125 72.60765625 -60.7521875 72.13328125 -61.8359375 71.64453125 C-62.42761719 71.37769531 -63.01929688 71.11085938 -63.62890625 70.8359375 C-70.03935413 68.44286895 -76.78393362 68.86181911 -83.5234375 68.83203125 C-84.68230469 68.81140625 -85.84117188 68.79078125 -87.03515625 68.76953125 C-93.36023006 68.74061663 -98.07437475 68.994358 -103.6484375 72.08203125 Z M-43.6484375 74.08203125 C-43.21709824 80.87562454 -41.93921691 86.10696419 -38.6484375 92.08203125 C-38.32230469 92.6853125 -37.99617188 93.28859375 -37.66015625 93.91015625 C-35.29142304 97.45894928 -32.7593466 98.62196357 -28.7734375 99.51953125 C-19.64447493 100.73342315 -9.71621978 100.90850511 -1.6484375 96.08203125 C2.46248203 90.83706496 2.51230926 84.78801596 2.6015625 78.33203125 C2.64023438 76.63820313 2.64023438 76.63820313 2.6796875 74.91015625 C2.57140625 73.976875 2.463125 73.04359375 2.3515625 72.08203125 C-3.62721375 68.09618042 -10.44840177 68.8987485 -17.3984375 68.89453125 C-18.96851563 68.87616211 -18.96851563 68.87616211 -20.5703125 68.85742188 C-28.84155121 68.8419133 -36.70201518 69.15231218 -43.6484375 74.08203125 Z M-116.2109375 77.39453125 C-118.65353806 80.2619319 -118.93309542 83.19806523 -118.86328125 86.8671875 C-118.22798627 93.41650119 -116.65941813 99.76414157 -113.2109375 105.39453125 C-110.84997775 109.27325083 -109.78604373 112.98659572 -108.7109375 117.39453125 C-104.59295587 134.08483557 -94.89832634 147.4319089 -80.6484375 157.08203125 C-67.49154239 164.32065359 -54.84928495 167.68795086 -40.0234375 163.45703125 C-29.53295101 159.84658704 -20.96826514 154.3600966 -12.6484375 147.08203125 C-12.01035156 146.52773437 -11.37226562 145.9734375 -10.71484375 145.40234375 C-0.60589026 135.99133582 4.64342331 123.8519424 7.4296875 110.6171875 C8.45366849 106.69048075 9.88720179 103.11761223 11.4765625 99.39453125 C13.84851627 93.74736527 15.92592358 88.30427633 15.3515625 82.08203125 C14.11107998 79.02788969 14.11107998 79.02788969 12.3515625 77.08203125 C10.42046669 77.0391337 10.42046669 77.0391337 8.3515625 78.08203125 C6.68115129 81.28365273 5.56174556 84.40773357 4.48828125 87.8515625 C1.99366776 95.52018914 1.99366776 95.52018914 -1.6484375 98.70703125 C-6.98477975 101.15285478 -11.6147916 101.26480605 -17.3984375 101.26953125 C-18.171875 101.28177734 -18.9453125 101.29402344 -19.7421875 101.30664062 C-26.00462475 101.32240179 -31.76917269 100.68906277 -37.3359375 97.58203125 C-41.55653967 93.0192181 -43.69951337 87.20762131 -46.2109375 81.58203125 C-47.76352766 78.88187445 -48.74310199 78.08387108 -51.6484375 77.08203125 C-54.52805677 80.16733761 -56.10324973 83.04256413 -57.5234375 86.95703125 C-59.41579598 91.8334935 -61.37866709 95.89826766 -65.6484375 99.08203125 C-74.2897221 102.75952451 -87.92393474 102.46395847 -96.8984375 99.95703125 C-101.05898509 98.22018026 -102.71411122 96.23725067 -104.6484375 92.08203125 C-105.68070576 88.73846912 -106.64805105 85.39602702 -107.5234375 82.0078125 C-108.75553579 78.80350131 -109.67864686 77.72353662 -112.6484375 76.08203125 C-114.73330312 75.86763389 -114.73330312 75.86763389 -116.2109375 77.39453125 Z M-86.6484375 164.08203125 C-87.18257862 165.97415827 -87.70022079 167.87094761 -88.2109375 169.76953125 C-88.50097656 170.82527344 -88.79101562 171.88101563 -89.08984375 172.96875 C-89.67763416 176.24475668 -89.8078874 177.97510706 -88.6484375 181.08203125 C-86.41857196 183.63030553 -86.41857196 183.63030553 -83.6484375 186.08203125 C-82.76027344 187.005 -81.87210938 187.92796875 -80.95703125 188.87890625 C-74.33080765 195.73072301 -67.5693985 201.72032812 -59.6484375 207.08203125 C-59.01421875 207.56542969 -58.38 208.04882812 -57.7265625 208.546875 C-55.91625623 209.84442671 -55.91625623 209.84442671 -52.6484375 210.08203125 C-39.52642078 204.59502912 -28.00079951 191.6062043 -17.6484375 182.08203125 C-19.2984375 176.80203125 -20.9484375 171.52203125 -22.6484375 166.08203125 C-24.7934375 167.03078125 -26.9384375 167.97953125 -29.1484375 168.95703125 C-42.88188857 174.83786992 -56.08552427 176.37634814 -70.453125 171.37109375 C-75.9533981 169.15215717 -81.32375151 166.69644336 -86.6484375 164.08203125 Z " fill="#FEF5EE" transform="translate(137.6484375,22.91796875)"/>
<path d="M0 0 C0.99 0 1.98 0 3 0 C3.25394531 0.54269531 3.50789063 1.08539063 3.76953125 1.64453125 C4.11371094 2.35996094 4.45789063 3.07539062 4.8125 3.8125 C5.14894531 4.52019531 5.48539062 5.22789063 5.83203125 5.95703125 C7.53565557 8.93694938 8.887273 10.60774372 12.171875 11.765625 C23.13866463 13.82605214 34.33222349 14.06605585 44 8 C44.66 7.67 45.32 7.34 46 7 C45.875 8.75 45.875 8.75 45 11 C38.73541688 15.87245354 33.86295149 16.18128027 26.25 16.1875 C25.4765625 16.19974609 24.703125 16.21199219 23.90625 16.22460938 C17.42998539 16.2409087 10.96308004 15.82701214 5.6875 11.6875 C3.1913358 9.1913358 1.4739407 7.19353818 0 4 C0 2.68 0 1.36 0 0 Z " fill="#FBEAE5" transform="translate(94,109)"/>
<path d="M0 0 C1.98 0 3.96 0 6 0 C6.33 1.98 6.66 3.96 7 6 C8.98 6 10.96 6 13 6 C13 9.63 13 13.26 13 17 C13.66 17.33 14.32 17.66 15 18 C7.08 18 -0.84 18 -9 18 C-8.34 17.67 -7.68 17.34 -7 17 C-7 14.69 -7 12.38 -7 10 C-5.02 10 -3.04 10 -1 10 C-0.67 6.7 -0.34 3.4 0 0 Z M1 1 C1 6.28 1 11.56 1 17 C2.32 17 3.64 17 5 17 C5 11.72 5 6.44 5 1 C3.68 1 2.36 1 1 1 Z M9 7 C9 10.3 9 13.6 9 17 C9.99 17 10.98 17 12 17 C12 13.7 12 10.4 12 7 C11.01 7 10.02 7 9 7 Z M-6 11 C-6 12.98 -6 14.96 -6 17 C-4.68 17 -3.36 17 -2 17 C-2 15.02 -2 13.04 -2 11 C-3.32 11 -4.64 11 -6 11 Z " fill="#F4E0DA" transform="translate(52,97)"/>
<path d="M0 0 C1 3 1 3 0.13671875 4.75390625 C-3.52109374 9.31877736 -6.47286966 10.99427067 -12.265625 11.79296875 C-24.878127 12.74791533 -24.878127 12.74791533 -29 10 C-27.77023438 9.89042969 -26.54046875 9.78085938 -25.2734375 9.66796875 C-23.64056405 9.50843514 -22.00775474 9.34824407 -20.375 9.1875 C-19.16263672 9.08211914 -19.16263672 9.08211914 -17.92578125 8.97460938 C-10.13717125 8.18308397 -5.37587934 5.85022164 0 0 Z " fill="#FBEAE4" transform="translate(77,113)"/>
<path d="M0 0 C0.33 0 0.66 0 1 0 C1 5.94 1 11.88 1 18 C7.27 18 13.54 18 20 18 C20 18.33 20 18.66 20 19 C13.4 19 6.8 19 0 19 C0 12.73 0 6.46 0 0 Z " fill="#EEDAD4" transform="translate(107,97)"/>
<path d="M0 0 C1.32 0 2.64 0 4 0 C3.67 1.32 3.34 2.64 3 4 C2.34 4 1.68 4 1 4 C0.071875 5.0209375 0.071875 5.0209375 -0.875 6.0625 C-1.57625 6.701875 -2.2775 7.34125 -3 8 C-5.0625 7.75 -5.0625 7.75 -7 7 C-7.99 7 -8.98 7 -10 7 C-9.34 6.34 -8.68 5.68 -8 5 C-7.195625 5.04125 -6.39125 5.0825 -5.5625 5.125 C-2.85044992 5.29071311 -2.85044992 5.29071311 -1.1875 3.0625 C0.08316074 1.25221777 0.08316074 1.25221777 0 0 Z " fill="#F5E1DA" transform="translate(121,102)"/>
<path d="" fill="#EBD7D1" transform="translate(0,0)"/>
</svg>
